<?xml version="1.0" encoding="UTF-8" standalone="no"?>
<!DOCTYPE svg PUBLIC "-//W3C//DTD SVG 1.1//EN"
 "http://www.w3.org/Graphics/SVG/1.1/DTD/svg11.dtd">
<!-- Generated by graphviz version 2.50.0 (20211204.2007)
 -->
<!-- Pages: 1 -->
<svg width="1030pt" height="260pt"
 viewBox="0.00 0.00 1029.60 260.00" xmlns="http://www.w3.org/2000/svg" xmlns:xlink="http://www.w3.org/1999/xlink">
<g id="graph0" class="graph" transform="scale(1 1) rotate(0) translate(4 256)">
<polygon fill="white" stroke="transparent" points="-4,4 -4,-256 1025.6,-256 1025.6,4 -4,4"/>
<!-- dev/us&#45;east&#45;1/app/nginx&#45;td -->
<g id="node1" class="node">
<title>dev/us&#45;east&#45;1/app/nginx&#45;td</title>
<ellipse fill="none" stroke="black" cx="335.07" cy="-234" rx="104.78" ry="18"/>
<text text-anchor="middle" x="335.07" y="-230.3" font-family="Times,serif" font-size="14.00">dev/us&#45;east&#45;1/app/nginx&#45;td</text>
</g>
<!-- dev/us&#45;east&#45;1/common/networking -->
<g id="node2" class="node">
<title>dev/us&#45;east&#45;1/common/networking</title>
<ellipse fill="none" stroke="black" cx="327.07" cy="-18" rx="133.78" ry="18"/>
<text text-anchor="middle" x="327.07" y="-14.3" font-family="Times,serif" font-size="14.00">dev/us&#45;east&#45;1/common/networking</text>
</g>
<!-- dev/us&#45;east&#45;1/app/nginx&#45;td&#45;&gt;dev/us&#45;east&#45;1/common/networking -->
<g id="edge1" class="edge">
<title>dev/us&#45;east&#45;1/app/nginx&#45;td&#45;&gt;dev/us&#45;east&#45;1/common/networking</title>
<path fill="none" stroke="black" d="M232.74,-229.93C150.24,-225.05 43.56,-212.44 16.07,-180 -52.02,-99.67 114.38,-54.34 229.14,-33.42"/>
<polygon fill="black" stroke="black" points="229.81,-36.86 239.04,-31.65 228.58,-29.97 229.81,-36.86"/>
</g>
<!-- dev/us&#45;east&#45;1/common/iam -->
<g id="node3" class="node">
<title>dev/us&#45;east&#45;1/common/iam</title>
<ellipse fill="none" stroke="black" cx="133.07" cy="-162" rx="107.78" ry="18"/>
<text text-anchor="middle" x="133.07" y="-158.3" font-family="Times,serif" font-size="14.00">dev/us&#45;east&#45;1/common/iam</text>
</g>
<!-- dev/us&#45;east&#45;1/app/nginx&#45;td&#45;&gt;dev/us&#45;east&#45;1/common/iam -->
<g id="edge2" class="edge">
<title>dev/us&#45;east&#45;1/app/nginx&#45;td&#45;&gt;dev/us&#45;east&#45;1/common/iam</title>
<path fill="none" stroke="black" d="M290.74,-217.64C260.32,-207.1 219.76,-193.04 187.4,-181.83"/>
<polygon fill="black" stroke="black" points="188.24,-178.41 177.64,-178.45 185.94,-185.03 188.24,-178.41"/>
</g>
<!-- dev/us&#45;east&#45;1/common/sg -->
<g id="node4" class="node">
<title>dev/us&#45;east&#45;1/common/sg</title>
<ellipse fill="none" stroke="black" cx="327.07" cy="-90" rx="102.08" ry="18"/>
<text text-anchor="middle" x="327.07" y="-86.3" font-family="Times,serif" font-size="14.00">dev/us&#45;east&#45;1/common/sg</text>
</g>
<!-- dev/us&#45;east&#45;1/app/nginx&#45;td&#45;&gt;dev/us&#45;east&#45;1/common/sg -->
<g id="edge3" class="edge">
<title>dev/us&#45;east&#45;1/app/nginx&#45;td&#45;&gt;dev/us&#45;east&#45;1/common/sg</title>
<path fill="none" stroke="black" d="M314.29,-216.17C304.31,-206.72 293.39,-194.03 288.07,-180 282.39,-165.04 283.07,-159.2 288.07,-144 291.38,-133.91 297.43,-124.15 303.8,-115.82"/>
<polygon fill="black" stroke="black" points="306.56,-117.97 310.18,-108.01 301.14,-113.54 306.56,-117.97"/>
</g>
<!-- dev/us&#45;east&#45;1/common/ecs -->
<g id="node5" class="node">
<title>dev/us&#45;east&#45;1/common/ecs</title>
<ellipse fill="none" stroke="black" cx="402.07" cy="-162" rx="105.08" ry="18"/>
<text text-anchor="middle" x="402.07" y="-158.3" font-family="Times,serif" font-size="14.00">dev/us&#45;east&#45;1/common/ecs</text>
</g>
<!-- dev/us&#45;east&#45;1/app/nginx&#45;td&#45;&gt;dev/us&#45;east&#45;1/common/ecs -->
<g id="edge4" class="edge">
<title>dev/us&#45;east&#45;1/app/nginx&#45;td&#45;&gt;dev/us&#45;east&#45;1/common/ecs</title>
<path fill="none" stroke="black" d="M351.28,-216.05C359.47,-207.5 369.56,-196.96 378.58,-187.54"/>
<polygon fill="black" stroke="black" points="381.14,-189.92 385.53,-180.28 376.09,-185.08 381.14,-189.92"/>
</g>
<!-- dev/us&#45;east&#45;1/common/alb -->
<g id="node6" class="node">
<title>dev/us&#45;east&#45;1/common/alb</title>
<ellipse fill="none" stroke="black" cx="630.07" cy="-162" rx="104.78" ry="18"/>
<text text-anchor="middle" x="630.07" y="-158.3" font-family="Times,serif" font-size="14.00">dev/us&#45;east&#45;1/common/alb</text>
</g>
<!-- dev/us&#45;east&#45;1/app/nginx&#45;td&#45;&gt;dev/us&#45;east&#45;1/common/alb -->
<g id="edge5" class="edge">
<title>dev/us&#45;east&#45;1/app/nginx&#45;td&#45;&gt;dev/us&#45;east&#45;1/common/alb</title>
<path fill="none" stroke="black" d="M393.7,-219.09C441.98,-207.63 510.52,-191.37 561.37,-179.3"/>
<polygon fill="black" stroke="black" points="562.37,-182.66 571.29,-176.95 560.75,-175.85 562.37,-182.66"/>
</g>
<!-- dev/us&#45;east&#45;1/common/cloudwatch -->
<g id="node7" class="node">
<title>dev/us&#45;east&#45;1/common/cloudwatch</title>
<ellipse fill="none" stroke="black" cx="887.07" cy="-162" rx="134.58" ry="18"/>
<text text-anchor="middle" x="887.07" y="-158.3" font-family="Times,serif" font-size="14.00">dev/us&#45;east&#45;1/common/cloudwatch</text>
</g>
<!-- dev/us&#45;east&#45;1/app/nginx&#45;td&#45;&gt;dev/us&#45;east&#45;1/common/cloudwatch -->
<g id="edge6" class="edge">
<title>dev/us&#45;east&#45;1/app/nginx&#45;td&#45;&gt;dev/us&#45;east&#45;1/common/cloudwatch</title>
<path fill="none" stroke="black" d="M410.09,-221.4C422.76,-219.53 435.78,-217.67 448.07,-216 480.15,-211.65 660.6,-190.02 779.94,-175.77"/>
<polygon fill="black" stroke="black" points="780.7,-179.2 790.21,-174.54 779.87,-172.25 780.7,-179.2"/>
</g>
<!-- dev/us&#45;east&#45;1/common/sg&#45;&gt;dev/us&#45;east&#45;1/common/networking -->
<g id="edge9" class="edge">
<title>dev/us&#45;east&#45;1/common/sg&#45;&gt;dev/us&#45;east&#45;1/common/networking</title>
<path fill="none" stroke="black" d="M327.07,-71.7C327.07,-63.98 327.07,-54.71 327.07,-46.11"/>
<polygon fill="black" stroke="black" points="330.57,-46.1 327.07,-36.1 323.57,-46.1 330.57,-46.1"/>
</g>
<!-- dev/us&#45;east&#45;1/common/alb&#45;&gt;dev/us&#45;east&#45;1/common/networking -->
<g id="edge7" class="edge">
<title>dev/us&#45;east&#45;1/common/alb&#45;&gt;dev/us&#45;east&#45;1/common/networking</title>
<path fill="none" stroke="black" d="M595.6,-144.85C540.54,-119.04 432.73,-68.52 371.79,-39.96"/>
<polygon fill="black" stroke="black" points="372.97,-36.65 362.43,-35.57 370,-42.99 372.97,-36.65"/>
</g>
<!-- dev/us&#45;east&#45;1/common/alb&#45;&gt;dev/us&#45;east&#45;1/common/sg -->
<g id="edge8" class="edge">
<title>dev/us&#45;east&#45;1/common/alb&#45;&gt;dev/us&#45;east&#45;1/common/sg</title>
<path fill="none" stroke="black" d="M570.2,-147.17C520.14,-135.6 448.68,-119.1 396.19,-106.97"/>
<polygon fill="black" stroke="black" points="396.82,-103.52 386.29,-104.68 395.24,-110.34 396.82,-103.52"/>
</g>
<!-- dev/us&#45;east&#45;1/common/ecr -->
<g id="node8" class="node">
<title>dev/us&#45;east&#45;1/common/ecr</title>
<ellipse fill="none" stroke="black" cx="562.07" cy="-234" rx="104.78" ry="18"/>
<text text-anchor="middle" x="562.07" y="-230.3" font-family="Times,serif" font-size="14.00">dev/us&#45;east&#45;1/common/ecr</text>
</g>
<!-- dev/us&#45;east&#45;1/test/test -->
<g id="node9" class="node">
<title>dev/us&#45;east&#45;1/test/test</title>
<ellipse fill="none" stroke="black" cx="772.07" cy="-234" rx="87.18" ry="18"/>
<text text-anchor="middle" x="772.07" y="-230.3" font-family="Times,serif" font-size="14.00">dev/us&#45;east&#45;1/test/test</text>
</g>
</g>
</svg>
